<?xml version="1.0" encoding="UTF-8" standalone="no"?>
<svg
   xml:space="preserve"
   viewBox="0 0 246.14999 200.01263"
   version="1.1"
   id="svg1"
   sodipodi:docname="Twitter.svg"
   inkscape:version="1.3 (0e150ed6c4, 2023-07-21)"
   width="246.14999"
   height="200.01263"
   xmlns:inkscape="http://www.inkscape.org/namespaces/inkscape"
   xmlns:sodipodi="http://sodipodi.sourceforge.net/DTD/sodipodi-0.dtd"
   xmlns="http://www.w3.org/2000/svg"
   xmlns:svg="http://www.w3.org/2000/svg"><defs
   id="defs1" /><sodipodi:namedview
   id="namedview1"
   pagecolor="#505050"
   bordercolor="#eeeeee"
   borderopacity="1"
   inkscape:showpageshadow="0"
   inkscape:pageopacity="0"
   inkscape:pagecheckerboard="0"
   inkscape:deskcolor="#d1d1d1"
   inkscape:zoom="3.8186275"
   inkscape:cx="123.99743"
   inkscape:cy="102"
   inkscape:window-width="1920"
   inkscape:window-height="1017"
   inkscape:window-x="-8"
   inkscape:window-y="-8"
   inkscape:window-maximized="1"
   inkscape:current-layer="svg1" />&#10;  <path
   fill="currentColor"
   d="m 220.95,49.792626 c 0.15,2.17 0.15,4.34 0.15,6.53 0,66.730004 -50.8,143.690004 -143.689999,143.690004 v -0.04 c -27.44,0.04 -54.31,-7.82 -77.41000011489759,-22.64 C 3.9900009,177.81263 8.0000009,178.05263 12.020001,178.06263 c 22.74,0.02 44.83,-7.61 62.72,-21.66 -21.61,-0.41 -40.56,-14.5 -47.18,-35.07 7.57,1.46 15.37,1.16 22.8,-0.87 -23.56,-4.76 -40.5100001,-25.460004 -40.5100001,-49.500004 v -0.64 c 7.0200001,3.91 14.8800001,6.08 22.9200001,6.32 -22.19,-14.83 -29.0300001,-44.35 -15.63,-67.4299997 25.64,31.5499997 63.47,50.7299997 104.079999,52.7599997 -4.07,-17.54 1.49,-35.92 14.61,-48.25 20.34,-19.1199997 52.33,-18.1399997 71.45,2.19 11.31,-2.23 22.15,-6.3799997 32.07,-12.2599997 -3.77,11.6899997 -11.66,21.6199997 -22.2,27.9299997 10.01,-1.18 19.79,-3.86 29,-7.95 -6.78,10.16 -15.32,19.01 -25.2,26.16 z"
   id="path1"
   style="currentColor;fill-opacity:1" />&#10;</svg>
